<svg fill="#ffffff" xmlns="http://www.w3.org/2000/svg"  viewBox="0 0 26 26" width="52px" height="52px"><path d="M 4.875 0 C 2.183594 0 0 2.183594 0 4.875 L 0 21.125 C 0 23.816406 2.183594 26 4.875 26 L 21.125 26 C 23.816406 26 26 23.816406 26 21.125 L 26 4.875 C 26 2.183594 23.816406 0 21.125 0 Z M 17 6.5 C 17.402344 6.5 17.722656 6.621094 17.96875 6.84375 C 18.21875 7.070313 18.34375 7.382813 18.34375 7.75 C 18.34375 8.117188 18.222656 8.410156 17.96875 8.625 C 17.722656 8.835938 17.398438 8.9375 17 8.9375 C 16.59375 8.9375 16.285156 8.816406 16.0625 8.59375 C 15.835938 8.375 15.71875 8.101563 15.71875 7.75 C 15.71875 7.398438 15.835938 7.105469 16.0625 6.875 C 16.285156 6.644531 16.59375 6.5 17 6.5 Z M 10.40625 6.59375 L 11.96875 6.59375 C 12.023438 6.59375 12.078125 6.632813 12.09375 6.6875 L 15.34375 17.9375 C 15.359375 17.957031 15.375 17.976563 15.375 18 C 15.375 18.070313 15.316406 18.125 15.25 18.125 L 13.125 18.125 C 13.066406 18.125 13.015625 18.085938 13 18.03125 L 12.34375 15.5625 L 9.90625 15.5625 L 9.25 18.03125 C 9.234375 18.085938 9.214844 18.125 9.15625 18.125 L 7.15625 18.125 C 7.117188 18.125 7.054688 18.09375 7.03125 18.0625 C 7.007813 18.03125 7.019531 18.003906 7.03125 17.96875 L 10.28125 6.6875 C 10.296875 6.632813 10.351563 6.59375 10.40625 6.59375 Z M 16.0625 9.875 L 17.96875 9.875 C 18.039063 9.875 18.09375 9.929688 18.09375 10 L 18.09375 18 C 18.09375 18.070313 18.039063 18.125 17.96875 18.125 L 16.0625 18.125 C 15.992188 18.125 15.9375 18.070313 15.9375 18 L 15.9375 10 C 15.9375 9.929688 15.992188 9.875 16.0625 9.875 Z M 11.15625 10.0625 L 10.96875 11.21875 L 10.40625 13.6875 L 11.9375 13.6875 L 11.3125 11.21875 Z"/></svg>